# Blender v2.76 (sub 0) OBJ File: ''
# www.blender.org
mtllib Star5.mtl
o pCylinder1.001
v 2.654752 0.818843 -0.000191
v 0.124235 -0.170722 0.644987
v 1.243589 -0.401355 -0.002236
v 1.607434 -2.268457 -0.000218
v -0.034631 -1.307959 -0.002265
v -1.652515 -2.233295 -0.000197
v -1.400231 -0.374170 -0.001584
v -2.630805 0.882773 -0.000161
v -0.890461 1.254970 -0.001175
v 0.039299 2.774661 -0.000158
v 0.815121 1.194367 -0.001527
v 0.124215 -0.169656 -0.635274
v 2.654752 0.818843 -0.000191
v 0.124235 -0.170722 0.644987
v 1.243589 -0.401355 -0.002236
v 1.607434 -2.268457 -0.000218
v -0.034631 -1.307959 -0.002265
v -1.652515 -2.233295 -0.000197
v -1.400231 -0.374170 -0.001584
v -2.630805 0.882773 -0.000161
v -0.890461 1.254970 -0.001175
v 0.039299 2.774661 -0.000158
v 0.815121 1.194367 -0.001527
v 0.124215 -0.169656 -0.635274
v 2.654752 0.818843 -0.000191
v 0.124235 -0.170722 0.644987
v 1.243589 -0.401355 -0.002236
v 1.607434 -2.268457 -0.000218
v -0.034631 -1.307959 -0.002265
v -1.652515 -2.233295 -0.000197
v -1.400231 -0.374170 -0.001584
v -2.630805 0.882773 -0.000161
v -0.890461 1.254970 -0.001175
v 0.039299 2.774661 -0.000158
v 0.815121 1.194367 -0.001527
v 0.124215 -0.169656 -0.635274
vt 0.375000 0.312500
vt 0.500000 0.688440
vt 0.400000 0.312500
vt 0.425000 0.312500
vt 0.450000 0.312500
vt 0.475000 0.312500
vt 0.500000 0.312500
vt 0.525000 0.312500
vt 0.550000 0.312500
vt 0.575000 0.312500
vt 0.600000 0.312500
vt 0.625000 0.312500
vt 0.626409 0.064409
vt 0.500000 0.156250
vt 0.656250 0.156250
vt 0.626409 0.248091
vt 0.548284 0.304853
vt 0.451716 0.304853
vt 0.373591 0.248091
vt 0.343750 0.156250
vt 0.373591 0.064409
vt 0.451716 0.007647
vt 0.548284 0.007647
vn 0.379700 -0.440400 0.813600
vn 0.513500 0.101000 0.852100
vn -0.263700 -0.449000 0.853700
vn 0.289100 -0.503700 0.814100
vn -0.396000 0.054400 0.916600
vn -0.331900 -0.326000 0.885200
vn -0.077600 0.365200 0.927700
vn -0.318200 0.194100 0.927900
vn 0.420500 0.205700 0.883700
vn 0.079700 0.393500 0.915900
vn 0.079600 0.386600 -0.918800
vn 0.412800 0.203400 -0.887800
vn -0.312300 0.191700 -0.930400
vn -0.077300 0.358900 -0.930200
vn -0.327000 -0.319100 -0.889500
vn -0.389300 0.052100 -0.919600
vn 0.282600 -0.496000 -0.821000
vn -0.257400 -0.441900 -0.859300
vn 0.505100 0.097500 -0.857500
vn 0.374600 -0.431900 -0.820500
usemtl initialShadingGroup.001
s off
f 1/1/1 2/2/1 3/3/1
f 3/3/2 2/2/2 4/4/2
f 4/4/3 2/2/3 5/5/3
f 5/5/4 2/2/4 6/6/4
f 6/6/5 2/2/5 7/7/5
f 7/7/6 2/2/6 8/8/6
f 8/8/7 2/2/7 9/9/7
f 9/9/8 2/2/8 10/10/8
f 10/10/9 2/2/9 11/11/9
f 11/11/10 2/2/10 1/12/10
f 1/13/11 12/14/11 11/15/11
f 11/15/12 12/14/12 10/16/12
f 10/16/13 12/14/13 9/17/13
f 9/17/14 12/14/14 8/18/14
f 8/18/15 12/14/15 7/19/15
f 7/19/16 12/14/16 6/20/16
f 6/20/17 12/14/17 5/21/17
f 5/21/18 12/14/18 4/22/18
f 4/22/19 12/14/19 3/23/19
f 3/23/20 12/14/20 1/13/20
f 13/1/1 14/2/1 15/3/1
f 15/3/2 14/2/2 16/4/2
f 16/4/3 14/2/3 17/5/3
f 17/5/4 14/2/4 18/6/4
f 18/6/5 14/2/5 19/7/5
f 19/7/6 14/2/6 20/8/6
f 20/8/7 14/2/7 21/9/7
f 21/9/8 14/2/8 22/10/8
f 22/10/9 14/2/9 23/11/9
f 23/11/10 14/2/10 13/12/10
f 13/13/11 24/14/11 23/15/11
f 23/15/12 24/14/12 22/16/12
f 22/16/13 24/14/13 21/17/13
f 21/17/14 24/14/14 20/18/14
f 20/18/15 24/14/15 19/19/15
f 19/19/16 24/14/16 18/20/16
f 18/20/17 24/14/17 17/21/17
f 17/21/18 24/14/18 16/22/18
f 16/22/19 24/14/19 15/23/19
f 15/23/20 24/14/20 13/13/20
f 25/1/1 26/2/1 27/3/1
f 27/3/2 26/2/2 28/4/2
f 28/4/3 26/2/3 29/5/3
f 29/5/4 26/2/4 30/6/4
f 30/6/5 26/2/5 31/7/5
f 31/7/6 26/2/6 32/8/6
f 32/8/7 26/2/7 33/9/7
f 33/9/8 26/2/8 34/10/8
f 34/10/9 26/2/9 35/11/9
f 35/11/10 26/2/10 25/12/10
f 25/13/11 36/14/11 35/15/11
f 35/15/12 36/14/12 34/16/12
f 34/16/13 36/14/13 33/17/13
f 33/17/14 36/14/14 32/18/14
f 32/18/15 36/14/15 31/19/15
f 31/19/16 36/14/16 30/20/16
f 30/20/17 36/14/17 29/21/17
f 29/21/18 36/14/18 28/22/18
f 28/22/19 36/14/19 27/23/19
f 27/23/20 36/14/20 25/13/20
